<svg id="Layer_1" data-name="Layer 1" xmlns="http://www.w3.org/2000/svg" viewBox="0 0 60 60"><defs><style>.cls-1{fill:#fff;}</style></defs><title>pause-btn</title><circle class="cls-1" cx="30" cy="30" r="28.5"/><path d="M30,2A28,28,0,1,1,2,30,28,28,0,0,1,30,2m0-1A29,29,0,1,0,59,30,29,29,0,0,0,30,1Z"/><rect class="cls-1" x="19.5" y="11.5" width="5.55" height="36"/><path d="M24.55,12V47H20V12h4.55m1-1H19V48h6.55V11Z"/><rect class="cls-1" x="34.95" y="11.5" width="5.55" height="36"/><path d="M40,12V47H35.45V12H40m1-1H34.45V48H41V11Z"/></svg>