<svg id="Layer_1" data-name="Layer 1" xmlns="http://www.w3.org/2000/svg" viewBox="0 0 287 287"><defs><style>.cls-1{fill:#fff;}</style></defs><title>asterik</title><path class="cls-1" d="M193.12,15.23l42,23.78-68.85,90.58-.2.27v2.94l1.13-.15,109.39-14.49v47.51l-109.4-13-1.12-.13v2.94l.22.27,69.54,86.93-44.13,25.21L148.19,166.4l-.26-.61h-2.77l-.27.59L97.8,268.55,58,243.39,126.83,155l.21-.27v-2.94l-1.13.14L18.71,165.66v-47.5l106.47,13.76,1.13.15v-2.95l-.21-.27L58,40.46,100.69,16,145.62,116.7l.27.59h2.77l.26-.6,44.2-101.46m-.47-1.42L148,116.29h-1.46L101.15,14.54,56.5,40.16l68.81,89.3v1.47L17.71,117v49.77L126,152.89v1.46L56.5,243.65,98.23,270,145.8,166.79h1.47l43.91,102.48,46.12-26.35L167,155.08v-1.46l110.52,13.17V117L167,131.66v-1.47L236.56,38.7,192.65,13.81Z"/></svg>
