<?xml version="1.0" encoding="utf-8"?>
<!-- Generator: Adobe Illustrator 22.1.0, SVG Export Plug-In . SVG Version: 6.00 Build 0)  -->
<svg version="1.1" id="Layer_1" xmlns="http://www.w3.org/2000/svg" xmlns:xlink="http://www.w3.org/1999/xlink" x="0px" y="0px"
	 viewBox="0 0 24 410" style="enable-background:new 0 0 24 410;" xml:space="preserve">
<g>
	<path d="M23,1v408H1V1H23 M24,0H0v410h24V0L24,0z"/>
</g>
<g>
	<path d="M12,42c3.9,0,7,3.1,7,7s-3.1,7-7,7c-3.9,0-7-3.1-7-7S8.1,42,12,42 M12,41c-4.4,0-8,3.6-8,8s3.6,8,8,8c4.4,0,8-3.6,8-8
		S16.4,41,12,41L12,41z"/>
</g>
<g>
	<path d="M12,354c3.9,0,7,3.1,7,7s-3.1,7-7,7c-3.9,0-7-3.1-7-7S8.1,354,12,354 M12,353c-4.4,0-8,3.6-8,8s3.6,8,8,8c4.4,0,8-3.6,8-8
		S16.4,353,12,353L12,353z"/>
</g>
<g>
	<path d="M12,198c3.9,0,7,3.1,7,7s-3.1,7-7,7c-3.9,0-7-3.1-7-7S8.1,198,12,198 M12,197c-4.4,0-8,3.6-8,8s3.6,8,8,8c4.4,0,8-3.6,8-8
		S16.4,197,12,197L12,197z"/>
</g>
</svg>
